<svg width="16" height="16" viewBox="0 0 16 16" fill="none" xmlns="http://www.w3.org/2000/svg">
<rect width="16" height="16" fill="white"/>
<path fill-rule="evenodd" clip-rule="evenodd" d="M11.9324 14.5C11.8312 14.5 11.7294 14.4765 11.6358 14.4287L8.00032 12.5662L4.36353 14.4287C4.14971 14.5391 3.88944 14.5205 3.69281 14.3816C3.49745 14.2428 3.39945 14.0079 3.44017 13.7754L4.13444 9.83278L1.19256 7.04174C1.01883 6.87686 0.956467 6.6308 1.03092 6.40642C1.10601 6.18205 1.30519 6.01841 1.54446 5.98432L5.61143 5.40541L7.4295 1.81728C7.64396 1.39457 8.35604 1.39457 8.5705 1.81728L10.3886 5.40541L14.4555 5.98432C14.6954 6.01841 14.8946 6.18205 14.9691 6.40642C15.0435 6.6308 14.9812 6.87686 14.8074 7.04174L11.8656 9.83278L12.5598 13.7754C12.6006 14.0079 12.5026 14.2428 12.3066 14.3816C12.1952 14.4603 12.0641 14.5 11.9324 14.5Z" fill="#313037"/>
</svg>
